<svg xmlns="http://www.w3.org/2000/svg" width="64" height="64" viewBox="0 0 32 32"><path fill="#d82c20" d="M16.214 6.762c-.36-.618-.957-.891-1.656-.891c-.699 0-1.296.273-1.656.891L4.552 20.82c-.36.618-.367 1.388 0 2.006c.36.618.958.891 1.656.891h16.214c.699 0 1.296-.273 1.656-.891c.36-.618.367-1.388 0-2.006L16.214 6.762zm-.903 12.434c-.699 0-1.254-.555-1.254-1.254c0-.699.555-1.254 1.254-1.254c.699 0 1.254.555 1.254 1.254c0 .699-.555 1.254-1.254 1.254zm1.137-4.064c0 .699-.555 1.254-1.254 1.254c-.699 0-1.254-.555-1.254-1.254l-.133-5.344c0-.699.555-1.254 1.254-1.254c.699 0 1.254.555 1.254 1.254l.133 5.344z" transform="translate(0 3)"/></svg>