<svg xmlns="http://www.w3.org/2000/svg" width="64" height="64" viewBox="0 0 32 32"><path fill="#fff" d="M23.749 30.005c-.119.063-.109.083.005.025.037-.015.068-.036.095-.061a.118.118 0 0 0-.1.036zm-.24.13c-.057.047-.057.047.011.016.036-.021.068-.041.068-.047c0-.027-.016-.021-.079.031zm-.165.096c-.057.047-.057.047.011.016.037-.021.068-.043.068-.048c0-.025-.016-.02-.079.032zm-.163.095c-.057.047-.057.047.009.015.037-.02.068-.041.068-.047c0-.025-.016-.02-.077.032zm-.161.099c-.059.049-.059.049.011.016.037-.02.068-.043.068-.048c0-.025-.016-.02-.079.032zm-.16.09c-.057.047-.057.047.009.015.037-.02.068-.041.068-.047c0-.025-.016-.02-.077.032zm-.16.097c-.057.047-.057.047.009.015.037-.02.068-.041.068-.047c0-.025-.016-.02-.077.032zm-.158.093c-.059.047-.059.047.009.016.037-.02.068-.043.068-.048c0-.025-.016-.02-.077.032zm-.161.09c-.057.047-.057.047.011.016.037-.02.068-.041.068-.047c0-.025-.016-.02-.079.031zm-.16.09c-.059.047-.059.047.009.015.037-.02.068-.041.068-.047c0-.025-.016-.02-.077.032zm-.16.099c-.057.047-.057.047.009.015.037-.02.068-.041.068-.047c0-.025-.016-.02-.077.032zm-.16.09c-.057.047-.057.047.011.016.037-.021.068-.043.068-.048c0-.025-.016-.02-.079.032zm-.161.092c-.059.047-.059.047.011.016.036-.021.068-.041.068-.047c0-.025-.016-.02-.079.031zm-.16.095c-.059.047-.059.047.011.016.037-.02.068-.041.068-.047c0-.025-.016-.02-.079.031zm-.161.095c-.057.047-.057.047.011.016.037-.02.068-.043.068-.048c0-.025-.016-.02-.079.032zm-.16.09c-.059.049-.059.049.011.016.036-.02.067-.041.067-.047c0-.025-.016-.02-.078.031zm-.161.095c-.059.047-.059.047.011.016.036-.02.068-.041.068-.047c0-.025-.016-.02-.079.031zm-.16.099c-.059.047-.059.047.009.015.037-.02.068-.041.068-.047c0-.025-.016-.02-.077.032zm-.16.09c-.059.047-.059.047.011.016.036-.02.068-.043.068-.048c0-.025-.016-.02-.079.032zm-.161.095c-.059.047-.059.047.009.015.037-.02.068-.041.068-.047c0-.025-.016-.02-.077.032zm-.16.09c-.057.047-.057.047.011.016.037-.02.068-.041.068-.047c0-.025-.016-.02-.079.031zm-.16.096c-.059.047-.059.047.009.016.037-.021.068-.043.068-.048c0-.025-.016-.02-.077.032zm-.161.095c-.059.047-.059.047.011.016.036-.02.068-.041.068-.047c0-.025-.016-.02-.079.031zm-.318.189c-.059.049-.059.049.011.016.036-.02.067-.041.067-.047c0-.025-.016-.02-.078.031zM23.97 29.4c-.151.057-.221.109-.152.109c.051-.013.118-.031.176-.063c.069-.031.076-.047.021-.047c-.02 0-.084.016-.045.001zm-.353.125c-.192.057-.293.104-.144.072a.494.494 0 0 0 .22-.109c.011-.023-.041-.011-.076.037zm-.325.1c-.055.027-.116.047-.177.068c-.048.016-.021.027.043.016c.12-.02.177-.041.152-.063c-.011-.016-.011-.016-.018-.021zm-.364.095a1.18 1.18 0 0 1-.199.052c-.032.016-.009.025.053.011c.099-.016.146-.036.125-.063a.038.038 0 0 0-.047-.011l.068.011zm-.307.088c-.047.016-.089.025-.131.047c-.047.016-.021.027.047.011c.084-.016.131-.031.095-.047l-.011-.011zm-.208.063c-.068.021-.099.047-.041.031c.113-.025.131-.057.023-.041l.018.01zm-.135.04c-.016.005-.047.015-.047.015c.016.011.047-.005.047-.015zm-16.207-11.92a.35.35 0 0 0-.047.057v.005c.027.026.031-.005.047-.057zm.099.16c-.025.057-.031.057-.011.088c.04-.041.036-.073.011-.088zm.173.299a.13.13 0 0 0-.036.057c.011.027.027.01.047-.015c.021-.036.021-.052-.011-.042zm.333.704c-.064.115-.068.14-.025.063c.057-.099.067-.141.031-.125a.07.07 0 0 1-.006.062zm.099.276a.271.271 0 0 0-.057.161c.005.027.025-.005.041-.068a.355.355 0 0 0 .016-.093zm.088.385c-.005.036-.016.073-.031.111c-.01.031.005.031.025.005c.011-.036.021-.068.021-.105c.001-.036.001-.036-.015-.011zm.052.244c-.021.068-.036.111-.021.089c.025-.068.031-.131.021-.109v.02zm.036.188a.439.439 0 0 0-.021.099c.011.036.021-.005.021-.068c.001-.063.001-.068 0-.031zm.011.2v.073c.005.037.016.026.016-.015c.011-.068.011-.104 0-.058zm.005.167c0 .057.005.115.016.088c.005-.068.005-.131-.016-.088zm.011.271c-.005.052.005.021.005.005c.021-.052.031-.115.011-.063c0-.005 0 .031-.016.058zM18.24 30.004l-.068.036c.041.005.047-.004.068-.036zm.215-.124c-.057.031-.057.031.011.011c.036-.011.068-.036.047-.036a.146.146 0 0 1-.058.025zm.563-.276c-.005.011-.016.027-.016.027c.011.016.027 0 .037-.011c.021-.016.021-.016.005-.027l-.026.011zm.068-.057l-.021.016c.011.011.021.011.047.005a.07.07 0 0 0-.026-.021zm.042-.036c-.011.005-.011.005-.011.016c0 .005.005.005.016 0s.016-.011.011-.011a.027.027 0 0 0-.016-.005zm.453-.349a.7.7 0 0 1-.104.077c0 .016.057-.005.115-.036a.65.65 0 0 0 .099-.063c-.005-.016-.063.005-.11.022zm.318-.21c-.025.016-.047.031-.063.047c0 .021.089-.025.115-.068zm.2-.188c-.058.047-.058.047.011.016c.036-.021.068-.043.068-.048c0-.025-.016-.02-.079.032zm.347-.305c-.005.016-.005.016.037-.011l.047-.027c0-.011-.068.027-.084.038zm.141-.124c-.016.021-.016.021.057-.011c.041-.021.068-.031.068-.042c0-.005-.058.016-.125.053zm.145-.109c-.068.057-.068.057.057-.005a.644.644 0 0 0 .099-.057c0-.011-.079.036-.156.062zm.157-.14c-.011.005-.011.005.016 0c.016-.011.031-.016.031-.021s-.036.01-.047.021zm.068-.041c-.005.005-.005.005.021-.011c.016-.005.031-.016.031-.021c-.005-.005-.036.021-.052.032zm.099-.073c-.005.005-.005.005.011 0c.005 0 .021-.011.021-.011c.005-.011-.021 0-.032.011zm.052-.041l.031-.016c-.005-.005-.016 0-.047.021c0 .005.005.005.016-.005zm.073-.036c0-.005 0-.005-.011 0c-.005.005-.005.005-.005.016c.005 0 .005-.005.016-.016zm.031-.027c0-.005-.005 0-.005.005c-.011.011-.011.011 0 .011c.005-.005.005-.011.005-.016zm.005-.021s0-.005 0 0zm.016-.016c-.011.011-.011.011 0 .011s.016-.011.011-.011zm.068-.047c0-.005-.005 0-.005.005c-.005.005-.005.005 0 .005s.016-.005.005-.01zm.005-.021s0-.005-.005 0c-.005.005-.005.005 0 .011c.005-.005.005-.011.005-.011zm.011-.005c-.005.005-.005.005 0 .005c.005.011.005.011.005.005c.006-.005.006-.005-.005-.01zm.016-.016c-.011.011-.011.011 0 .005c.005 0 .011-.005.011-.005c-.005-.011-.005-.011-.011 0zm.041-.027c-.016.016-.016.016.011 0c.011-.005.021-.011.021-.011c-.005-.011-.021-.005-.032.011zm.052-.036c-.005.005-.005.005.005 0c.005-.005.011-.005.011-.011c-.005-.005-.011 0-.016.011zm.073-.057c-.005.011-.005.011.016 0c.011-.005.021-.011.021-.016c-.005-.005-.031.005-.037.016zm.068-.047c-.016.011-.016.011.011-.005c.011-.005.031-.016.031-.021c-.005-.005-.031.011-.042.026zm.073-.057c-.005.011-.005.011.021-.005c.016-.005.031-.016.031-.021c-.011 0-.041.016-.052.026zm.141-.099c-.005.005-.005.005.011 0c.011-.005.021-.011.021-.011c-.005-.011-.021-.005-.032.011zm.119-.088c-.005.005-.005.005.011-.005c.011 0 .021-.011.021-.011c-.005-.011-.021-.005-.032.016zm.114-.083a.05.05 0 0 0 .016-.016c-.011 0-.021.005-.031.021c.005-.005.01-.005.015-.005zm.041-.036c-.005.011-.005.011.011 0c.011-.005.016-.011.016-.011c-.005-.011-.016-.005-.027.011zm.052-.036c-.005.005-.005.005.005-.005c.011-.005.016-.005.016-.011c-.005 0-.016.011-.021.016zm.047-.041c-.005.011-.005.011.011-.005c.005-.005.016-.011.016-.011c-.011-.005-.021 0-.027.016zm.057-.047a.05.05 0 0 0 .016-.016c-.005-.005-.011 0-.031.021c.005-.005.01-.005.015-.005zm.031-.031c0-.005-.005 0-.005.005c-.005.005-.005.011 0 .011c.011-.005.011-.011.005-.016zm.027-.016c-.005.005-.005.005 0 .005c.005.005.005.005.011 0c-.005-.011-.005-.011-.011-.005zm.011-.016c-.005.011-.005.011.005.005h.005c.006-.005.006-.005-.01-.005zm.026-.021c-.005.005-.005.005.005 0c.005-.005.005-.005.005-.011c-.005.005-.005.005-.01.011zm.010-.005zm.011-.016c-.005.011-.005.011.005.005c.005-.005.011-.005.011-.011c-.011.011-.011.011-.016.006zm.021-.016c-.005.005-.005.005 0 .005c.005.005.005.005.011 0c-.005-.011-.005-.011-.011-.005zm.011-.011c-.005.005-.005.005 0 .005c.005.011.005.011.005.005c.006 0 .006 0-.005-.01zm.005-.005zm.016-.016c-.011.016-.011.016 0 .011h.011c-.005-.016-.005-.016-.011-.011zm.011-.005c-.005.005-.005.005 0 .005c.005.011.005.011.011.005c-.005-.005-.005-.005-.011-.01zm.027-.027c-.011.016-.011.016.005.011c.005 0 .011-.005.011-.011c-.005 0-.011.005-.016 0zm.037-.031c-.005.005-.005.005.005.005c.011 0 .011-.005.011-.005c-.005-.011-.011-.011-.016 0zm.031-.025c-.016.016-.016.016.005.011c.011-.005.016-.005.016-.011c-.005-.011-.016-.011-.021 0zm.036-.031c-.005.005-.005.005.011 0c.005-.005.011-.005.011-.011c-.011.005-.016.005-.022.011zm.047-.041c-.016.021-.016.021.011.005c.011-.005.021-.016.021-.016c-.011-.005-.021-.005-.032.011zm.052-.047c-.005.011-.005.011.016-.005c.011-.005.016-.011.016-.011c-.011-.005-.021-.005-.032.016zm.068-.052c-.005.005-.005.005.011-.005c.011-.005.021-.011.021-.011c-.005-.011-.021-.005-.032.016zm.052-.047c-.016.021-.016.021.011.005l.02-.016c-.005-.005-.02-.005-.031.011zm.073-.057c-.005.011-.005.011.016-.005c.016-.005.021-.011.021-.011c-.011-.011-.026-.005-.037.016zm.063-.057c-.016.021-.016.021.011.011c.011-.005.021-.011.021-.016c-.011-.011-.021-.011-.032.005zm.073-.063c-.011.016-.011.016.011.005c.011-.005.021-.011.021-.016c-.011 0-.021 0-.032.011zm.062-.052c-.005.005-.005.005.011-.005c.011-.005.016-.005.016-.011c-.005.005-.016.011-.027.016zm.068-.052c-.005.005-.005.005.011-.005c.005-.005.016-.011.016-.011c-.011-.005-.021 0-.027.016zm.041-.036c-.005.011-.005.011.011-.005c.011-.005.016-.011.016-.011c-.011-.011-.021-.011-.027.016zm.068-.057c-.011.016-.011.016.011.005c.011-.005.016-.011.016-.011c-.005-.011-.016-.011-.027.006zm.079-.063c-.016.021-.016.021.011.011c.011-.011.021-.011.021-.021c-.011.005-.021.005-.032.01zm.063-.057c-.005.011-.005.011.016-.005c.011-.005.021-.011.021-.016c-.011.005-.026.011-.037.021zm.084-.073c-.005.016-.005.016.016 0c.011-.005.026-.016.026-.016c-.011-.011-.031-.005-.042.016zm.031-.031zm.01-.005c-.005.011-.005.011.011-.005c.011-.005.016-.005.016-.011c-.005.005-.016.011-.027.016zm.041-.031c-.005.005-.005.005.005-.005c.011-.005.011-.005.011-.011c-.005.011-.011.011-.016.016zm.047-.041c-.011.016-.011.016.011.005c.005-.005.016-.011.016-.011c-.011-.011-.021-.011-.027.006zm.068-.063c-.011.021-.011.021.016.005c.011-.005.021-.016.021-.016c-.011-.005-.026-.005-.037.011zm.052-.036c-.005.005-.005.005.011-.011c.005-.005.016-.005.016-.011c-.011.011-.021.011-.027.022zm.063-.057c-.005.011-.005.011.016-.005c.011-.005.016-.011.016-.011c-.011-.011-.021-.005-.032.016zm.058-.052c-.011.016-.011.016.011.005c.011-.005.016-.011.016-.011c-.011-.011-.016-.011-.027.006zm.073-.068c-.011.021-.011.021.016.005c.016-.005.021-.016.021-.016c-.011-.005-.026-.005-.037.011zm.067-.057c-.005.011-.005.011.021-.005c.005-.005.016-.011.016-.011c-.016-.011-.031-.005-.037.016zm.073-.068c-.005.016-.005.016.021 0c.011-.005.021-.016.021-.016c-.016-.005-.031-.005-.042.016zm.088-.078a.118.118 0 0 0 .031-.011c-.011-.005-.031-.005-.052.021c.005-.005.016-.005.021-.01zm.057-.052c-.005.011-.005.011.016-.005c.011-.005.021-.011.021-.016c-.011.011-.026.011-.037.021zm.068-.063c-.011.021-.011.021.016.005c.016-.005.026-.016.026-.016c-.011-.005-.031-.005-.042.011zm.079-.073c-.005.016-.005.016.021-.005c.016-.005.021-.016.021-.016c-.011 0-.031 0-.042.021zm.073-.068c-.016.027-.016.027.016.011c.021-.011.026-.021.026-.021c-.011-.005-.031-.005-.042.01zm.078-.068c-.005.011-.005.011.021-.005c.011-.011.021-.011.021-.021c-.011.011-.026.016-.042.026zm.084-.078c-.011.016-.011.016.026-.005c.011-.005.026-.016.026-.021c-.016.011-.036.016-.052.026zm.047-.047c-.011.021-.011.021.026.005c.021-.011.031-.021.031-.021c-.021.005-.042.011-.057.016zm.099-.088c-.016.027-.016.027.031.005c.021-.011.036-.021.036-.026c-.021.011-.047.016-.067.021zm.114-.099c-.005.011-.005.011.026-.005c.021-.011.031-.016.031-.021c-.021.005-.042.016-.057.026zm.099-.094c-.011.021-.011.021.036.005c.021-.011.041-.021.041-.026c-.021.011-.057.021-.077.021zm.104-.083c-.005.005-.005.005.016-.005c.021-.011.036-.016.036-.021c-.016.011-.036.016-.052.026zm.078-.068c-.016.021-.016.021.031.005c.031-.011.047-.021.047-.031c-.026.016-.057.021-.078.026zm.115-.094c-.011.011-.011.011.036-.005c.031-.011.052-.021.052-.031c-.031.021-.068.031-.088.036zm.141-.125c-.021.027-.021.027.052.005c.052-.021.073-.031.068-.041c-.041.021-.089.036-.12.036zm.156-.114c-.005.005-.005.005.031-.005c.036-.016.063-.021.063-.031c-.036.016-.073.031-.094.036zm.145-.114c-.011.011-.011.011.047-.005c.041-.021.073-.031.068-.041c-.041.021-.084.036-.115.046zm.161-.125c-.005.011-.005.011.057-.011c.047-.016.084-.031.084-.041c-.052.021-.104.041-.141.052zm.182-.14c-.011.016-.011.016.073-.011c.052-.021.094-.036.089-.047c-.052.031-.115.047-.162.058zm.188-.14c-.005.005-.005.005.052-.011c.052-.021.1-.036.095-.047c-.057.031-.115.052-.147.058zm.167-.125c-.005.011-.005.011.068-.011c.052-.021.115-.047.115-.057c-.068.031-.14.057-.183.068zm.224-.161c-.011.016-.011.016.099-.031c.068-.031.125-.052.125-.068c-.088.047-.188.083-.224.099zm.26-.188c-.016.021-.016.021.12-.047c.084-.036.151-.068.146-.078c-.099.052-.213.099-.266.125zm.182-.135zm.104-.078c-.005.011-.005.011.068-.021c.068-.031.13-.063.13-.078c-.083.047-.167.089-.198.099zm.328-.24c-.016.021-.016.021.141-.063c.104-.052.188-.099.188-.115c-.125.073-.276.151-.329.178zm.401-.287c-.025.031-.025.031.188-.088c.135-.073.24-.14.24-.156c-.167.099-.36.213-.428.244zm.548-.391c-.031.041-.031.041.251-.135c.177-.109.313-.188.308-.204c-.219.135-.48.287-.559.339zm.661-.456c-.005.005-.005.005.036-.021c.031-.021.068-.047.073-.057c-.041.036-.079.063-.109.078zm.104-.083zm.182-.125c-.005.011-.005.011.115-.068c.073-.052.14-.099.14-.109c-.099.073-.214.151-.255.177zm.849-.568c-.041.041-.041.041.344-.203c.245-.151.443-.281.438-.292c-.276.167-.661.421-.782.495zM16 .859C7.164.859 0 7.949 0 16.706c0 7 4.583 12.916 10.932 15.01c.8.151 1.093-.344 1.093-.772c0-.38-.011-1.391-.021-2.724c-4.451.953-5.391-2.115-5.391-2.115c-.724-1.828-1.781-2.313-1.781-2.313c-1.448-.984.109-.963.109-.963c1.604.109 2.448 1.641 2.448 1.641c1.427 2.432 3.739 1.729 4.459 1.323c.145-1.036.557-1.745 1.011-2.146c-3.552-.401-7.287-1.755-7.287-7.817c0-1.729.625-3.145 1.645-4.25c-.167-.396-.719-2-157-4.182c0 0 1.339-.427 4.4 1.641a15.436 15.436 0 0 1 4-.531a15.45 15.45 0 0 1 4 .541c3.043-2.068 4.381-1.641 4.381-1.641c.875 2.183.323 3.786.156 4.182c1.021 1.099 1.635 2.521 1.635 4.25c0 6.079-3.745 7.411-7.307 7.802c.583.495 1.089 1.459 1.089 2.943c0 2.125-.011 3.833-.011 4.354c0 .423.287.927 1.104.771C27.421 29.616 32 23.7 32 16.706C32 7.949 24.833.859 16 .859z"/></svg>