<svg xmlns="http://www.w3.org/2000/svg" width="64" height="64" viewBox="0 0 32 32"><path fill="#FF9900" d="M16.1 14c-.1 0-.1 0 0 0c-.1 0-.1 0-.2.1l-.5.3c-.1 0-.1.1-.2.1l-.2.1h-.1c-.1 0-.1 0 0 0c-.1 0-.1 0 0 0h.1l.2-.1.2-.1.5-.3c.1 0 .1-.1.2-.1zm1.9-1.1c-.1 0-.1 0 0 0c-.1 0-.1 0-.2.1l-.5.3c-.1 0-.1.1-.2.1l-.2.1h-.1c-.1 0-.1 0 0 0c-.1 0-.1 0 0 0h.1l.2-.1.2-.1.5-.3c.1 0 .1-.1.2-.1zm1.4-.8c-.1 0-.1 0 0 0c-.1 0-.1 0-.2.1l-.5.3c-.1 0-.1.1-.2.1l-.2.1h-.1c-.1 0-.1 0 0 0c-.1 0-.1 0 0 0h.1l.2-.1.2-.1.5-.3c.1 0 .1-.1.2-.1zM32 16c0 8.8-7.2 16-16 16S0 24.8 0 16S7.2 0 16 0s16 7.2 16 16zm-11.1-4.5c0 .1 0 .1-.1.2c-.1.1-.2.2-.3.2l-4.8 2.8s0 .1.1.1c.1 0 .1.1.2.1l2.9-1.7c.2-.1.4-.1.5 0l2.5 1.5c.1.1.2.1.3.2c.1 0 .1-.1.1-.2v-2.9c0-.2 0-.3-.1-.4l-1.1-.6c-.1 0-.2-.1-.2-.1v.8zm-.3-1.9c0 .1 0 .1-.1.2s-.1.1-.2.2l-4 2.4c-.1.1-.2.1-.3.1s-.2 0-.3-.1l-2.4-1.4c-.1-.1-.2-.2-.2-.4V8c0-.1 0-.1.1-.2s.1-.1.2-.2L15.9 6c.1 0 .1-.1.2-.1s.1 0 .2.1l2.5 1.5c.1.1.2.2.2.4v2.3c0 .2 0 .3.1.4l1.2.7c.1.1.2.1.2.1v-.8c0-.1.1-.2.1-.3c.1-.1.2-.2.4-.2zm-6.2 3c.1-.1.1-.1.2-.2c.1-.1.2-.1.3-.1c.1 0 .2 0 .3.1l4 2.4s.1.1.1.2c0 .1-.1.1-.1.2L15.4 17c-.2.1-.4.1-.5 0L12 15.4c-.1 0-.2-.1-.2-.1s0-.1.1-.2l2.5-1.5z"/></svg>