<svg xmlns="http://www.w3.org/2000/svg" width="64" height="64" viewBox="0 0 32 32"><path fill="#2496ED" d="M27.3 14.4c-.1 0-.2-.1-.3-.1c-.6-.3-1.4-.4-2.1-.4c-.4 0-.9.1-1.3.2c-.4-1.2-1.4-2.2-2.6-2.8l-.5-.3l-.3.5c-.5.8-.7 1.7-.5 2.6c.1.5.3.9.6 1.3c-.5.2-1 .4-1.6.5H1.8c-.2 0-.4.2-.5.4c-.2 1.2 0 2.5.5 3.7c.6 1.3 1.6 2.3 2.9 2.9c2 .9 4.1 1.3 6.3 1.3c1.2 0 2.4-.1 3.6-.4c1.7-.4 3.3-1.1 4.7-2.2c1.1-.9 2.1-2 2.8-3.2c.5-.1 1-.2 1.5-.4c1.1-.4 2-.1 2.6.6l.3.4l.4-.3c.7-.5 1.1-1.3 1.1-2.2c-.1-.8-.4-1.5-1-2l-.4-.2zm-9-9.9h-3.8v3.5h3.8V4.5zm0 4.1h-3.8v3.5h3.8V8.6zm0 4.1h-3.8v3.5h3.8v-3.5zM14 8.6h-3.8v3.5H14V8.6zm0 4.1h-3.8v3.5H14v-3.5zm-4.3 0H6v3.5h3.8v-3.5zm-4.4 0H1.6v3.5h3.8v-3.5zm8.8-4.1H10.3v3.5h3.8V8.6zm4.3-4.1h-3.8v3.5h3.8V4.5z"/></svg>