<svg xmlns="http://www.w3.org/2000/svg" width="64" height="64" viewBox="0 0 32 32"><path fill="#83CD29" d="M16 30a2.151 2.151 0 0 1-1.076-.288L11.5 27.685c-.511-.286-.262-.387-.093-.446a6.828 6.828 0 0 0 1.549-.7a.354.354 0 0 1 .348.025l2.664 1.588a.455.455 0 0 0 .422 0l10.382-6a.447.447 0 0 0 .212-.374V9.513a.455.455 0 0 0-.223-.386L16.364 3.131a.448.448 0 0 0-.424 0L5.572 9.125a.455.455 0 0 0-.224.386v12.267a.42.42 0 0 0 .211.374l2.845 1.644c1.544.771 2.487-.138 2.487-1.051V10.609a.4.4 0 0 1 .4-.4h1.729a.4.4 0 0 1 .4.4v12.139c0 2.112-1.15 3.326-3.154 3.326c-.615 0-1.1 0-2.452-.664L4.811 23.658a2.173 2.173 0 0 1-1.076-1.875V9.512a2.173 2.173 0 0 1 1.076-1.875L15.207 1.64a2.277 2.277 0 0 1 2.152 0L27.74 7.639a2.173 2.173 0 0 1 1.076 1.875v12.271a2.173 2.173 0 0 1-1.076 1.875l-10.38 6a2.162 2.162 0 0 1-1.075.288Zm3.152-8.132c-4.547 0-5.492-2.086-5.492-3.836a.4.4 0 0 1 .4-.4h1.761a.4.4 0 0 1 .394.336c.269 1.817 1.072 2.736 3.943 2.736c2.426 0 3.458-.551 3.458-1.844c0-.745-.293-1.3-4.065-1.673c-3.146-.314-5.092-1.006-5.092-3.524c0-2.321 1.956-3.7 5.231-3.7c3.68 0 5.5 1.278 5.726 4.022a.4.4 0 0 1-.109.3a.41.41 0 0 1-.291.131h-1.768a.4.4 0 0 1-.385-.293c-.427-1.9-1.464-2.508-3.173-2.508c-2.337 0-2.608.814-2.608 1.423c0 .841.32 1.086 3.941 1.56c3.586.47 5.215 1.133 5.215 3.6c0 2.5-2.084 3.945-5.719 3.945Z"/></svg>