<svg xmlns="http://www.w3.org/2000/svg" width="64" height="64" viewBox="0 0 32 32"><path fill="#336791" d="M29.025 9.588c-.473-2.788-2.4-3.824-3.706-4.019c-1.3-.194-3.106-.125-5.094.506-1.162.388-2.375.925-3.494 1.55.206-.388.4-.794.594-1.194.319-.669.638-1.356.863-2.056.069-.206.119-.413.175-.638l.4-1.8a.3.3 0 0 0-.263-.375a.75.75 0 0 0-.125 0c-.45.025-.919.081-1.375.156a8.7 8.7 0 0 0-2.281.738a3.862 3.862 0 0 0-1.462 1.15c-.531.606-.85 1.431-1.119 2.181a17.794 17.794 0 0 0-.563 2.344c-1.256-.681-2.5-1.262-3.506-1.519A3.825 3.825 0 0 0 5.506 6a3.162 3.162 0 0 0-1.931 1.231a3.887 3.887 0 0 0-.594 1.594c-.013 1.325.631 2.625 1.731 3.456a6.31 6.31 0 0 0 2.756 1.094a7.138 7.138 0 0 0-.494 2.144 9.494 9.494 0 0 0 .006 1.331c-.3.006-.6.013-.875.019-.731.031-1.462.094-2.144.269-.619.188-1.219.475-1.625 1.006a1.975 1.975 0 0 0-.244 1.8a2.062 2.062 0 0 0 .969 1.069c.688.388 1.556.413 2.35.413h.85c-.006.269-.006.538-.006.794a5.762 5.762 0 0 0 .331 1.894a2.475 2.475 0 0 0 1.306 1.412c.419.163.875.231 1.319.288.431.063.875.1 1.312.138l.656.063a13.075 13.075 0 0 0 2.306.094a11.944 11.944 0 0 0 2.306-.275a4.294 4.294 0 0 0 1.431-.606a2.525 2.525 0 0 0 .8-.881c.45-.75.469-1.712.469-2.594v-.138a18.994 18.994 0 0 0 3.281.3a23.081 23.081 0 0 0 4.325-.4 11.2 11.2 0 0 0 2.025-.606a5.569 5.569 0 0 0 1.631-1.006a4.881 4.881 0 0 0 1.15-1.606a10.544 10.544 0 0 0 .6-2.044c.138-.731.244-1.487.294-2.244.05-.75.05-1.537-.006-2.287-.05-.919-.2-1.913-.531-2.731zM5.506 11.919a3.575 3.575 0 0 1-1.475-.656a2.119 2.119 0 0 1-.825-1.669a2.019 2.019 0 0 1 .206-.913a1.681 1.681 0 0 1 .9-.644a2.575 2.575 0 0 1 1.669.15c.794.294 1.769.819 2.888 1.45-.15.6-.275 1.2-.375 1.8-.106.606-.169 1.181-.206 1.719a3.981 3.981 0 0 1-2.781-1.237zm6.788 14.006a1.494 1.494 0 0 1-.456.469a2.306 2.306 0 0 1-.769.288 8.925 8.925 0 0 1-1.744.219a9.675 9.675 0 0 1-1.756-.056l-.644-.063c-.413-.044-.825-.075-1.225-.131a2.494 2.494 0 0 1-.65-.15a.869.869 0 0 1-.444-.519a4.075 4.075 0 0 1-.219-1.369c0-.238 0-.5.006-.769a23.94 23.94 0 0 1 .094-2.019c.056-.656.144-1.294.269-1.894.219-1.056.588-1.944 1.238-2.063a.656.656 0 0 1 .194-.019c.781 0 2.081 1.188 3.5 2.469.7.625 1.419 1.275 2.019 1.8a16.575 16.575 0 0 0 1.15.931c0 .656-.019 1.238-.1 1.719a2.738 2.738 0 0 1-.463 1.156zm14.25-5.287c-.125 1.188-.431 2.356-.931 3.331a3.544 3.544 0 0 1-.806 1.125a4.006 4.006 0 0 1-1.156.731a8.681 8.681 0 0 1-1.575.488 19.856 19.856 0 0 1-3.7.344a16.925 16.925 0 0 1-3.406-.306c.006-.006.013-.006.019-.013.038-.031.094-.075.156-.131a8.925 8.925 0 0 0 1.725-1.931a5.494 5.494 0 0 0 .694-1.8a9.206 9.206 0 0 0 .194-1.894c0-.331 0-.669-.019-1.012s-.038-.7-.069-1.05a9.738 9.738 0 0 1 2.769-.838a20.863 20.863 0 0 1 3.394-.1a18.163 18.163 0 0 1 2.375.269a5.1 5.1 0 0 1 1.35.394c.125.5.206 1.025.25 1.563a13.456 13.456 0 0 1-.263 2.831zm.5-8.294a13.881 13.881 0 0 1-1.519.5a20.075 20.075 0 0 0-3.156.894c-1.019.375-2.025.825-2.969 1.344-.45.244-.894.506-1.331.781-.306-.294-.619-.6-.931-.913-1.2-1.175-2.538-2.469-4.138-3.181a2.644 2.644 0 0 0-1.231-.238a2.938 2.938 0 0 0-1.231.306c-.188.088-.363.2-.525.331.275-1.05.625-2.056 1.05-2.969.35-.738.794-1.594 1.569-1.963a2.606 2.606 0 0 1 1.156-.244c.319-.006.638.019.944.069.619.119 1.231.331 1.819.575 1.181.488 2.425 1.188 3.669 1.931 1.244.75 2.481 1.55 3.531 2.3.481.344.881.638 1.181.869.069.05.138.106.2.15.069.044.119.081.169.113a.794.794 0 0 1-.256-.656z"/></svg>