<svg xmlns="http://www.w3.org/2000/svg" width="64" height="64" viewBox="0 0 32 32"><defs><linearGradient id="a" x1="811.527" y1="574.895" x2="665.255" y2="573.732" gradientUnits="userSpaceOnUse" gradientTransform="matrix(.563 0 0 -.568 -462.544 403.397)"><stop offset="0" stop-color="#5A9FD4"/><stop offset="1" stop-color="#306998"/></linearGradient><linearGradient id="b" x1="862.824" y1="642.176" x2="573.276" y2="642.176" gradientUnits="userSpaceOnUse" gradientTransform="matrix(.563 0 0 -.568 -462.544 403.397)"><stop offset="0" stop-color="#FFD43B"/><stop offset="1" stop-color="#FFE873"/></linearGradient></defs><path fill="url(#a)" d="M15.885 2.1c-7.1 0-6.651 3.07-6.651 3.07v3.19h6.752v1h-9.441S2.545 8.8 2.545 16c0 7.2 4.1 6.9 4.1 6.9h2.4v-3.4s-.131-4.1 4.021-4.1h6.651s3.94.061 3.94-3.8V5.8s.6-3.7-7.772-3.7zm-3.781 2.2a1.23 1.23 0 1 1 0 2.46a1.23 1.23 0 1 1 0-2.46z"/><path fill="url(#b)" d="M16.085 29.91c7.1 0 6.651-3.08 6.651-3.08v-3.18h-6.751v-1h9.47s4-0.451 4-7.661-4.1-6.9-4.1-6.9h-2.4v3.4s.131 4.1-4.021 4.1h-6.651s-3.94-.06-3.94 3.8v6.8s-.6 3.712 7.742 3.712zm3.781-2.2a1.23 1.23 0 1 1 0-2.46a1.23 1.23 0 1 1 0 2.46z"/></svg>