<svg xmlns="http://www.w3.org/2000/svg" width="64" height="64" viewBox="0 0 32 32"><path fill="#d92b20" d="M12.209 5.687c0 .473-.36.833-.833.833s-.833-.36-.833-.833c0-.48.36-.848.833-.848s.833.368.833.848zm-5.208 0c0 .473-.36.833-.833.833s-.833-.36-.833-.833c0-.48.36-.848.833-.848s.833.368.833.848z"/><path fill="#4db33d" d="M2 15.833c0-1.008.695-1.776 1.688-1.776h.625v7.792H3v3.328h.313c.984 0 1.688-.776 1.688-1.776v-1.545h.313c.984 0 1.688-.784 1.688-1.784v-4.24z"/><path fill="#d92b20" d="M10.896 11.74a1.95 1.95 0 0 1-1.953-1.953V8.74c0-1.615 1.688-2.964 3.641-2.964c1.057 0 2.005.36 2.615.943v11.599c0 1.073-.84 1.953-1.896 1.953c-.968 0-1.771-.688-1.896-1.593c-.104.433-.407.817-.807 1.089c-.464.311-1.005.495-1.599.495c-1.599 0-2.911-1.312-2.911-2.911c0-1.6 1.313-2.912 2.911-2.912a2.89 2.89 0 0 1 1.864.687v-.5c0-.536.432-.968.969-.968a.968.968 0 0 1 .969.968v.964c-.016 1.616 1.385 2.995 3 2.995c.272 0 .536-.04.792-.12v1.984c0 1.631-1.688 2.979-3.641 2.979c-1.968 0-3.641-1.348-3.641-2.979V11.74zm4.412-1.156c0-.808-.776-1.464-1.729-1.464c-.96 0-1.729.656-1.729 1.464v1.047c0 .817.769 1.473 1.729 1.473c.953 0 1.729-.656 1.729-1.473V10.584z"/><path fill="#4db33d" d="M27.063 5.74h-1.563v2.833h1.563a.48.48 0 0 1 .479.479v6.776c0 .807-.656 1.464-1.464 1.464h-1.063v1.057c0 .807.656 1.464 1.464 1.464h1.063v.959c0 .808-.656 1.464-1.464 1.464h-1.063v1.047c0 1.6-1.312 2.911-2.911 2.911s-2.911-1.312-2.911-2.911v-2.911h2.911v2.911a.968.968 0 0 0 .969.968a.968.968 0 0 0 .969-.968v-1.063a.48.48 0 0 1 .479-.479h1.584a.48.48 0 0 1 .479.479v-.943a.48.48 0 0 1 .479.479v.464a.48.48 0 0 1-.479.479h-1.063a.968.968 0 0 0-.969.968c0 .536.432.969.969.969h1.063c1.6 0 2.912-1.312 2.912-2.912v-.464c0-1.6-1.312-2.911-2.912-2.911h-1.063a.48.48 0 0 1-.479-.479v-.943a.48.48 0 0 1 .479-.479h1.063c1.6 0 2.912-1.312 2.912-2.912v-6.776a.48.48 0 0 1 .479-.479z"/><path fill="#d92b20" d="M30 19.792c0 1-.776 1.776-1.776 1.776h-.625v-7.792H29c1 0 1.776.776 1.776 1.776v4.24z"/></svg>