<svg xmlns="http://www.w3.org/2000/svg" width="64" height="64" viewBox="0 0 32 32"><path fill="#83CD29" d="M22 16.7V15c.1-.1.2-.1.3-.2c3.6-2.1 5.5-5.6 5.5-9.2c0-.4 0-.7-.1-1.1c-.3-1.4-1.1-2.4-2.4-2.9c-1.3-.5-2.7-.2-3.8.7c-.9.8-1.4 1.8-1.6 3c-.1.5-.1 1.1-.1 1.6v9.3c-.1.1-.2.1-.3.2c-3.6 2.1-5.5 5.6-5.5 9.2c0 .4 0 .7.1 1.1c.3 1.4 1.1 2.4 2.4 2.9c1.3.5 2.7.2 3.8-.7c.9-.8 1.4-1.8 1.6-3c.1-.5.1-1.1.1-1.6V16.7zM20 5.7c0-.5 0-.9.1-1.4c.2-1 .6-1.8 1.4-2.4c.7-.5 1.5-.7 2.3-.4c.9.3 1.4 1 1.6 1.9c.1.3.1.7.1 1c0 3.2-1.7 6.3-4.9 8.2c-.2.1-.4.2-.6.3V5.7zM12 26.3c0 .5 0 .9-.1 1.4c-.2 1-.6 1.8-1.4 2.4c-.7.5-1.5.7-2.3.4c-.9-.3-1.4-1-1.6-1.9c-.1-.3-.1-.7-.1-1c0-3.2 1.7-6.3 4.9-8.2c.2-.1.4-.2.6-.3v7.2z"/></svg>